<svg width="825" height="403" viewBox="0 0 825 403" fill="none" fill-opacity="0.04" xmlns="http://www.w3.org/2000/svg">
<path d="M134.651 7.88336C139.824 2.90439 146.653 0 153.689 0H810.517C822.519 0 828.52 14.522 820.036 23.0277L690.285 153.103C685.318 158.082 678.489 160.986 671.246 160.986H14.4188C2.41632 160.986 -3.58494 146.465 4.8996 137.959L134.651 7.88336Z" fill="#383838"/>
<path d="M690.321 249.146C685.355 244.167 678.526 241.263 671.283 241.263H14.4555C2.45294 241.263 -3.54832 255.785 4.93622 264.29L134.688 394.366C139.654 399.345 146.483 402.249 153.726 402.249H810.553C822.556 402.249 828.557 387.727 820.073 379.222L690.321 249.146Z" fill="#383838"/>
</svg>
