<!--
  - This file is part of Solana Reference Stake Pool code.
  -
  - Copyright © 2021, mFactory GmbH
  -
  - Solana Reference Stake Pool is free software: you can redistribute it
  - and/or modify it under the terms of the GNU Affero General Public License
  - as published by the Free Software Foundation, either version 3
  - of the License, or (at your option) any later version.
  -
  - Solana Reference Stake Pool is distributed in the hope that it
  - will be useful, but WITHOUT ANY WARRANTY; without even the implied
  - warranty of MERCHANTABILITY or FITNESS FOR A PARTICULAR PURPOSE.
  - See the GNU Affero General Public License for more details.
  -
  - You should have received a copy of the GNU Affero General Public License
  - along with this program.
  - If not, see <https://www.gnu.org/licenses/agpl-3.0.html>.
  -
  - You can be released from the requirements of the Affero GNU General Public License
  - by purchasing a commercial license. The purchase of such a license is
  - mandatory as soon as you develop commercial activities using the
  - Solana Reference Stake Pool code without disclosing the source code of
  - your own applications.
  -
  - The developer of this program can be contacted at <info@mfactory.ch>.
  -->

<svg width="114" height="56" viewBox="0 0 114 56" fill="none" xmlns="http://www.w3.org/2000/svg">
<path d="M12.2449 45.6363L9.45884 53.0003H8.52084L6.19684 46.9663L3.87284 53.0003H2.93484L0.162842 45.6363H1.11484L3.42484 51.8943L5.79084 45.6363H6.64484L8.99684 51.8943L11.3349 45.6363H12.2449ZM17.4936 45.5803C18.4176 45.5803 19.1502 45.851 19.6916 46.3923C20.2422 46.9243 20.5176 47.7036 20.5176 48.7303V53.0003H19.5236V48.8283C19.5236 48.063 19.3322 47.4796 18.9496 47.0783C18.5669 46.677 18.0209 46.4763 17.3116 46.4763C16.5182 46.4763 15.8882 46.7143 15.4216 47.1903C14.9642 47.657 14.7356 48.3056 14.7356 49.1363V53.0003H13.7416V42.6123H14.7356V46.9243C15.0062 46.495 15.3796 46.1636 15.8556 45.9303C16.3316 45.697 16.8776 45.5803 17.4936 45.5803ZM23.2162 45.6363H24.2102V53.0003H23.2162V45.6363ZM23.7202 44.0263C23.5148 44.0263 23.3422 43.9563 23.2022 43.8163C23.0622 43.6763 22.9922 43.5083 22.9922 43.3123C22.9922 43.1256 23.0622 42.9623 23.2022 42.8223C23.3422 42.6823 23.5148 42.6123 23.7202 42.6123C23.9255 42.6123 24.0982 42.6823 24.2382 42.8223C24.3782 42.953 24.4482 43.1116 24.4482 43.2983C24.4482 43.5036 24.3782 43.6763 24.2382 43.8163C24.0982 43.9563 23.9255 44.0263 23.7202 44.0263ZM30.8539 52.5523C30.6673 52.7203 30.4339 52.851 30.1539 52.9443C29.8833 53.0283 29.5986 53.0703 29.2999 53.0703C28.6093 53.0703 28.0773 52.8836 27.7039 52.5103C27.3306 52.137 27.1439 51.6096 27.1439 50.9283V46.4763H25.8279V45.6363H27.1439V44.0263H28.1379V45.6363H30.3779V46.4763H28.1379V50.8723C28.1379 51.311 28.2453 51.647 28.4599 51.8803C28.6839 52.1043 29.0013 52.2163 29.4119 52.2163C29.6173 52.2163 29.8133 52.1836 29.9999 52.1183C30.1959 52.053 30.3639 51.9596 30.5039 51.8383L30.8539 52.5523ZM38.8157 49.6263H32.6557C32.7117 50.3916 33.0057 51.0123 33.5377 51.4883C34.0697 51.955 34.7417 52.1883 35.5537 52.1883C36.011 52.1883 36.431 52.109 36.8137 51.9503C37.1963 51.7823 37.5277 51.5396 37.8077 51.2223L38.3677 51.8663C38.041 52.2583 37.6303 52.557 37.1357 52.7623C36.6503 52.9676 36.1137 53.0703 35.5257 53.0703C34.7697 53.0703 34.0977 52.9116 33.5097 52.5943C32.931 52.2676 32.4783 51.8196 32.1517 51.2503C31.825 50.681 31.6617 50.037 31.6617 49.3183C31.6617 48.5996 31.8157 47.9556 32.1237 47.3863C32.441 46.817 32.8703 46.3736 33.4117 46.0563C33.9623 45.739 34.5783 45.5803 35.2597 45.5803C35.941 45.5803 36.5523 45.739 37.0937 46.0563C37.635 46.3736 38.0597 46.817 38.3677 47.3863C38.6757 47.9463 38.8297 48.5903 38.8297 49.3183L38.8157 49.6263ZM35.2597 46.4343C34.5503 46.4343 33.953 46.663 33.4677 47.1203C32.9917 47.5683 32.721 48.1563 32.6557 48.8843H37.8777C37.8123 48.1563 37.537 47.5683 37.0517 47.1203C36.5757 46.663 35.9783 46.4343 35.2597 46.4343ZM46.491 53.0703C45.8936 53.0703 45.3196 52.9863 44.769 52.8183C44.2276 52.641 43.803 52.4216 43.495 52.1603L43.943 51.3763C44.251 51.619 44.6383 51.8196 45.105 51.9783C45.5716 52.1276 46.057 52.2023 46.561 52.2023C47.233 52.2023 47.7276 52.0996 48.045 51.8943C48.3716 51.6796 48.535 51.381 48.535 50.9983C48.535 50.7276 48.4463 50.5176 48.269 50.3683C48.0916 50.2096 47.8676 50.093 47.597 50.0183C47.3263 49.9343 46.967 49.855 46.519 49.7803C45.9216 49.6683 45.441 49.5563 45.077 49.4443C44.713 49.323 44.4003 49.1223 44.139 48.8423C43.887 48.5623 43.761 48.175 43.761 47.6803C43.761 47.0643 44.0176 46.5603 44.531 46.1683C45.0443 45.7763 45.7583 45.5803 46.673 45.5803C47.149 45.5803 47.625 45.6456 48.101 45.7763C48.577 45.8976 48.969 46.061 49.277 46.2663L48.843 47.0643C48.2363 46.6443 47.513 46.4343 46.673 46.4343C46.0383 46.4343 45.5576 46.5463 45.231 46.7703C44.9136 46.9943 44.755 47.2883 44.755 47.6523C44.755 47.9323 44.8436 48.1563 45.021 48.3243C45.2076 48.4923 45.4363 48.6183 45.707 48.7023C45.9776 48.777 46.351 48.8563 46.827 48.9403C47.415 49.0523 47.8863 49.1643 48.241 49.2763C48.5956 49.3883 48.899 49.5796 49.151 49.8503C49.403 50.121 49.529 50.4943 49.529 50.9703C49.529 51.6143 49.2583 52.1276 48.717 52.5103C48.185 52.8836 47.443 53.0703 46.491 53.0703ZM55.2446 52.5523C55.0579 52.7203 54.8246 52.851 54.5446 52.9443C54.2739 53.0283 53.9892 53.0703 53.6906 53.0703C52.9999 53.0703 52.4679 52.8836 52.0946 52.5103C51.7212 52.137 51.5346 51.6096 51.5346 50.9283V46.4763H50.2186V45.6363H51.5346V44.0263H52.5286V45.6363H54.7686V46.4763H52.5286V50.8723C52.5286 51.311 52.6359 51.647 52.8506 51.8803C53.0746 52.1043 53.3919 52.2163 53.8026 52.2163C54.0079 52.2163 54.2039 52.1836 54.3906 52.1183C54.5866 52.053 54.7546 51.9596 54.8946 51.8383L55.2446 52.5523ZM59.6301 45.5803C60.5914 45.5803 61.3287 45.823 61.8421 46.3083C62.3554 46.7843 62.6121 47.4936 62.6121 48.4363V53.0003H61.6601V51.8523C61.4361 52.235 61.1047 52.5336 60.6661 52.7483C60.2367 52.963 59.7234 53.0703 59.1261 53.0703C58.3047 53.0703 57.6514 52.8743 57.1661 52.4823C56.6807 52.0903 56.4381 51.5723 56.4381 50.9283C56.4381 50.303 56.6621 49.799 57.1101 49.4163C57.5674 49.0336 58.2907 48.8423 59.2801 48.8423H61.6181V48.3943C61.6181 47.7596 61.4407 47.279 61.0861 46.9523C60.7314 46.6163 60.2134 46.4483 59.5321 46.4483C59.0654 46.4483 58.6174 46.5276 58.1881 46.6863C57.7587 46.8356 57.3901 47.0456 57.0821 47.3163L56.6341 46.5743C57.0074 46.257 57.4554 46.0143 57.9781 45.8463C58.5007 45.669 59.0514 45.5803 59.6301 45.5803ZM59.2801 52.2863C59.8401 52.2863 60.3207 52.1603 60.7221 51.9083C61.1234 51.647 61.4221 51.2736 61.6181 50.7883V49.5843H59.3081C58.0481 49.5843 57.4181 50.023 57.4181 50.9003C57.4181 51.3296 57.5814 51.6703 57.9081 51.9223C58.2347 52.165 58.6921 52.2863 59.2801 52.2863ZM68.0419 49.3043L66.3059 50.9003V53.0003H65.3119V42.6123H66.3059V49.6543L70.7019 45.6363H71.9339L68.7839 48.6463L72.2279 53.0003H71.0099L68.0419 49.3043ZM79.8313 49.6263H73.6713C73.7273 50.3916 74.0213 51.0123 74.5533 51.4883C75.0853 51.955 75.7573 52.1883 76.5693 52.1883C77.0266 52.1883 77.4466 52.109 77.8293 51.9503C78.212 51.7823 78.5433 51.5396 78.8233 51.2223L79.3833 51.8663C79.0566 52.2583 78.646 52.557 78.1513 52.7623C77.666 52.9676 77.1293 53.0703 76.5413 53.0703C75.7853 53.0703 75.1133 52.9116 74.5253 52.5943C73.9466 52.2676 73.494 51.8196 73.1673 51.2503C72.8406 50.681 72.6773 50.037 72.6773 49.3183C72.6773 48.5996 72.8313 47.9556 73.1393 47.3863C73.4566 46.817 73.886 46.3736 74.4273 46.0563C74.978 45.739 75.594 45.5803 76.2753 45.5803C76.9566 45.5803 77.568 45.739 78.1093 46.0563C78.6506 46.3736 79.0753 46.817 79.3833 47.3863C79.6913 47.9463 79.8453 48.5903 79.8453 49.3183L79.8313 49.6263ZM76.2753 46.4343C75.566 46.4343 74.9686 46.663 74.4833 47.1203C74.0073 47.5683 73.7366 48.1563 73.6713 48.8843H78.8933C78.828 48.1563 78.5526 47.5683 78.0673 47.1203C77.5913 46.663 76.994 46.4343 76.2753 46.4343ZM89.3266 45.5803C90.0173 45.5803 90.6426 45.739 91.2026 46.0563C91.7626 46.3643 92.2013 46.803 92.5186 47.3723C92.8359 47.9416 92.9946 48.5903 92.9946 49.3183C92.9946 50.0556 92.8359 50.709 92.5186 51.2783C92.2013 51.8476 91.7626 52.291 91.2026 52.6083C90.6519 52.9163 90.0266 53.0703 89.3266 53.0703C88.7293 53.0703 88.1879 52.949 87.7026 52.7063C87.2266 52.4543 86.8346 52.0903 86.5266 51.6143V55.7163H85.5326V45.6363H86.4846V47.0923C86.7833 46.607 87.1753 46.2336 87.6606 45.9723C88.1553 45.711 88.7106 45.5803 89.3266 45.5803ZM89.2566 52.1883C89.7699 52.1883 90.2366 52.0716 90.6566 51.8383C91.0766 51.5956 91.4033 51.255 91.6366 50.8163C91.8793 50.3776 92.0006 49.8783 92.0006 49.3183C92.0006 48.7583 91.8793 48.2636 91.6366 47.8343C91.4033 47.3956 91.0766 47.055 90.6566 46.8123C90.2366 46.5696 89.7699 46.4483 89.2566 46.4483C88.7339 46.4483 88.2626 46.5696 87.8426 46.8123C87.4319 47.055 87.1053 47.3956 86.8626 47.8343C86.6293 48.2636 86.5126 48.7583 86.5126 49.3183C86.5126 49.8783 86.6293 50.3776 86.8626 50.8163C87.1053 51.255 87.4319 51.5956 87.8426 51.8383C88.2626 52.0716 88.7339 52.1883 89.2566 52.1883ZM98.0309 53.0703C97.3215 53.0703 96.6822 52.9116 96.1129 52.5943C95.5435 52.2676 95.0955 51.8196 94.7689 51.2503C94.4422 50.681 94.2789 50.037 94.2789 49.3183C94.2789 48.5996 94.4422 47.9556 94.7689 47.3863C95.0955 46.817 95.5435 46.3736 96.1129 46.0563C96.6822 45.739 97.3215 45.5803 98.0309 45.5803C98.7402 45.5803 99.3795 45.739 99.9489 46.0563C100.518 46.3736 100.961 46.817 101.279 47.3863C101.605 47.9556 101.769 48.5996 101.769 49.3183C101.769 50.037 101.605 50.681 101.279 51.2503C100.961 51.8196 100.518 52.2676 99.9489 52.5943C99.3795 52.9116 98.7402 53.0703 98.0309 53.0703ZM98.0309 52.1883C98.5535 52.1883 99.0202 52.0716 99.4309 51.8383C99.8509 51.5956 100.177 51.255 100.411 50.8163C100.644 50.3776 100.761 49.8783 100.761 49.3183C100.761 48.7583 100.644 48.259 100.411 47.8203C100.177 47.3816 99.8509 47.0456 99.4309 46.8123C99.0202 46.5696 98.5535 46.4483 98.0309 46.4483C97.5082 46.4483 97.0369 46.5696 96.6169 46.8123C96.2062 47.0456 95.8795 47.3816 95.6369 47.8203C95.4035 48.259 95.2869 48.7583 95.2869 49.3183C95.2869 49.8783 95.4035 50.3776 95.6369 50.8163C95.8795 51.255 96.2062 51.5956 96.6169 51.8383C97.0369 52.0716 97.5082 52.1883 98.0309 52.1883ZM106.808 53.0703C106.099 53.0703 105.459 52.9116 104.89 52.5943C104.321 52.2676 103.873 51.8196 103.546 51.2503C103.219 50.681 103.056 50.037 103.056 49.3183C103.056 48.5996 103.219 47.9556 103.546 47.3863C103.873 46.817 104.321 46.3736 104.89 46.0563C105.459 45.739 106.099 45.5803 106.808 45.5803C107.517 45.5803 108.157 45.739 108.726 46.0563C109.295 46.3736 109.739 46.817 110.056 47.3863C110.383 47.9556 110.546 48.5996 110.546 49.3183C110.546 50.037 110.383 50.681 110.056 51.2503C109.739 51.8196 109.295 52.2676 108.726 52.5943C108.157 52.9116 107.517 53.0703 106.808 53.0703ZM106.808 52.1883C107.331 52.1883 107.797 52.0716 108.208 51.8383C108.628 51.5956 108.955 51.255 109.188 50.8163C109.421 50.3776 109.538 49.8783 109.538 49.3183C109.538 48.7583 109.421 48.259 109.188 47.8203C108.955 47.3816 108.628 47.0456 108.208 46.8123C107.797 46.5696 107.331 46.4483 106.808 46.4483C106.285 46.4483 105.814 46.5696 105.394 46.8123C104.983 47.0456 104.657 47.3816 104.414 47.8203C104.181 48.259 104.064 48.7583 104.064 49.3183C104.064 49.8783 104.181 50.3776 104.414 50.8163C104.657 51.255 104.983 51.5956 105.394 51.8383C105.814 52.0716 106.285 52.1883 106.808 52.1883ZM112.575 42.6123H113.569V53.0003H112.575V42.6123Z" fill="white"/>
<path d="M67.8308 0.200195L55.4648 38.0002H46.0688L37.7528 12.4042L29.1668 38.0002H19.8248L7.40479 0.200195H16.4768L25.0088 26.7682L33.9188 0.200195H42.0188L50.6588 26.9842L59.4608 0.200195H67.8308ZM89.0764 0.200195C92.4244 0.200195 95.3224 0.758196 97.7704 1.8742C100.254 2.9902 102.162 4.5742 103.494 6.6262C104.826 8.6782 105.492 11.1082 105.492 13.9162C105.492 16.6882 104.826 19.1182 103.494 21.2062C102.162 23.2582 100.254 24.8422 97.7704 25.9582C95.3224 27.0382 92.4244 27.5782 89.0764 27.5782H81.4624V38.0002H72.7144V0.200195H89.0764ZM88.5904 20.4502C91.2184 20.4502 93.2164 19.8922 94.5844 18.7762C95.9524 17.6242 96.6364 16.0042 96.6364 13.9162C96.6364 11.7922 95.9524 10.1722 94.5844 9.0562C93.2164 7.9042 91.2184 7.3282 88.5904 7.3282H81.4624V20.4502H88.5904Z" fill="white"/>
</svg>
