<svg width="16" height="16" viewBox="0 0 16 16" fill="none" xmlns="http://www.w3.org/2000/svg">
<path d="M10.6666 8.6V11.4C10.6666 13.7333 9.73325 14.6667 7.39992 14.6667H4.59992C2.26659 14.6667 1.33325 13.7333 1.33325 11.4V8.6C1.33325 6.26667 2.26659 5.33334 4.59992 5.33334H7.39992C9.73325 5.33334 10.6666 6.26667 10.6666 8.6Z" stroke="currentColor" stroke-width="1.5" stroke-linecap="round" stroke-linejoin="round"/>
<path d="M14.6666 4.6V7.4C14.6666 9.73334 13.7333 10.6667 11.3999 10.6667H10.6666V8.6C10.6666 6.26667 9.73325 5.33334 7.39992 5.33334H5.33325V4.6C5.33325 2.26667 6.26659 1.33334 8.59992 1.33334H11.3999C13.7333 1.33334 14.6666 2.26667 14.6666 4.6Z" stroke="currentColor" stroke-width="1.5" stroke-linecap="round" stroke-linejoin="round"/>
</svg>
