<?xml version="1.0" encoding="UTF-8"?>
<!--
  - This file is part of Solana Reference Stake Pool code.
  -
  - Copyright © 2021, mFactory GmbH
  -
  - Solana Reference Stake Pool is free software: you can redistribute it
  - and/or modify it under the terms of the GNU Affero General Public License
  - as published by the Free Software Foundation, either version 3
  - of the License, or (at your option) any later version.
  -
  - Solana Reference Stake Pool is distributed in the hope that it
  - will be useful, but WITHOUT ANY WARRANTY; without even the implied
  - warranty of MERCHANTABILITY or FITNESS FOR A PARTICULAR PURPOSE.
  - See the GNU Affero General Public License for more details.
  -
  - You should have received a copy of the GNU Affero General Public License
  - along with this program.
  - If not, see <https://www.gnu.org/licenses/agpl-3.0.html>.
  -
  - You can be released from the requirements of the Affero GNU General Public License
  - by purchasing a commercial license. The purchase of such a license is
  - mandatory as soon as you develop commercial activities using the
  - Solana Reference Stake Pool code without disclosing the source code of
  - your own applications.
  -
  - The developer of this program can be contacted at <info@mfactory.ch>.
  -->

<svg xmlns="http://www.w3.org/2000/svg" width="40" height="40" viewBox="0 0 35 40" version="1.1">
  <g>
    <path
      style="fill:none;stroke-width:6.16;stroke-linecap:butt;stroke-linejoin:round;stroke:rgb(40.784314%,40.784314%,98.823529%);stroke-opacity:1;stroke-miterlimit:4;"
      d="M 388.053024 11.815928 L 388.226512 215.750088 " transform="matrix(0.045032,0,0,0.0446299,0.00957985,0)"/>
    <path
      style="fill:none;stroke-width:6.16;stroke-linecap:butt;stroke-linejoin:round;stroke:rgb(40.784314%,40.784314%,98.823529%);stroke-opacity:1;stroke-miterlimit:4;"
      d="M 765.38905 665.980697 L 591.987966 563.926092 " transform="matrix(0.045032,0,0,0.0446299,0.00957985,0)"/>
    <path
      style="fill:none;stroke-width:6.16;stroke-linecap:butt;stroke-linejoin:round;stroke:rgb(40.784314%,40.784314%,98.823529%);stroke-opacity:1;stroke-miterlimit:4;"
      d="M 12.278389 665.980697 L 185.766217 563.926092 " transform="matrix(0.045032,0,0,0.0446299,0.00957985,0)"/>
    <path
      style="fill:none;stroke-width:9.24;stroke-linecap:round;stroke-linejoin:round;stroke:rgb(46.666667%,89.019608%,93.72549%);stroke-opacity:1;stroke-miterlimit:4;"
      d="M 387.96628 447.954949 L 185.245754 330.845977 L 387.96628 213.737004 L 590.426576 331.371129 Z M 387.96628 447.954949 "
      transform="matrix(0.045032,0,0,0.0446299,0.00957985,0)"/>
    <path
      style="fill:none;stroke-width:9.24;stroke-linecap:butt;stroke-linejoin:round;stroke:rgb(29.019608%,79.607843%,86.27451%);stroke-opacity:1;stroke-miterlimit:4;"
      d="M 387.96628 680.860014 L 185.505985 564.71382 L 185.245754 330.845977 L 387.96628 447.954949 Z M 387.96628 680.860014 "
      transform="matrix(0.045032,0,0,0.0446299,0.00957985,0)"/>
    <path
      style="fill:none;stroke-width:9.24;stroke-linecap:butt;stroke-linejoin:round;stroke:rgb(2.745098%,67.058824%,77.254902%);stroke-opacity:1;stroke-miterlimit:4;"
      d="M 387.96628 680.860014 L 590.426576 565.238973 L 590.426576 331.371129 L 387.96628 447.954949 Z M 387.96628 680.860014 "
      transform="matrix(0.045032,0,0,0.0446299,0.00957985,0)"/>
    <path
      style="fill:none;stroke-width:21.55;stroke-linecap:butt;stroke-linejoin:miter;stroke:rgb(48.627451%,48.627451%,100%);stroke-opacity:1;stroke-miterlimit:10;"
      d="M 765.38905 665.980697 L 765.38905 230.279303 L 388.053024 12.428605 L 10.803743 230.279303 L 10.803743 665.980697 L 388.053024 883.831395 Z M 765.38905 665.980697 "
      transform="matrix(0.045032,0,0,0.0446299,0.00957985,0)"/>
    <path
      style="fill:none;stroke-width:21.55;stroke-linecap:round;stroke-linejoin:miter;stroke:rgb(48.627451%,48.627451%,100%);stroke-opacity:1;stroke-miterlimit:10;"
      d="M 11.41095 230.629404 L 388.053024 448.480102 L 765.996257 230.629404 "
      transform="matrix(0.045032,0,0,0.0446299,0.00957985,0)"/>
    <path
      style="fill:none;stroke-width:21.55;stroke-linecap:round;stroke-linejoin:miter;stroke:rgb(48.627451%,48.627451%,100%);stroke-opacity:1;stroke-miterlimit:10;"
      d="M 388.746976 448.480102 L 388.746976 883.831395 " transform="matrix(0.045032,0,0,0.0446299,0.00957985,0)"/>
  </g>
</svg>
