<!--
  - This file is part of Solana Reference Stake Pool code.
  -
  - Copyright © 2021, mFactory GmbH
  -
  - Solana Reference Stake Pool is free software: you can redistribute it
  - and/or modify it under the terms of the GNU Affero General Public License
  - as published by the Free Software Foundation, either version 3
  - of the License, or (at your option) any later version.
  -
  - Solana Reference Stake Pool is distributed in the hope that it
  - will be useful, but WITHOUT ANY WARRANTY; without even the implied
  - warranty of MERCHANTABILITY or FITNESS FOR A PARTICULAR PURPOSE.
  - See the GNU Affero General Public License for more details.
  -
  - You should have received a copy of the GNU Affero General Public License
  - along with this program.
  - If not, see <https://www.gnu.org/licenses/agpl-3.0.html>.
  -
  - You can be released from the requirements of the Affero GNU General Public License
  - by purchasing a commercial license. The purchase of such a license is
  - mandatory as soon as you develop commercial activities using the
  - Solana Reference Stake Pool code without disclosing the source code of
  - your own applications.
  -
  - The developer of this program can be contacted at <info@mfactory.ch>.
  -->

<svg width="40" height="40" viewBox="0 0 40 40" fill="none" xmlns="http://www.w3.org/2000/svg">
    <path d="M24.8919 24.9666L29.9929 31.0468L23.6926 26.2361C22.228 25.1225 20.1169 26.069 19.9621 27.912L18.9563 40L17.3425 28.1849C17.0883 26.3085 14.85 25.4955 13.4628 26.7706L0 39.1648L11.8104 25.3842C13.0539 23.9365 12.142 21.6759 10.2463 21.5145L0.0773726 20.5234L10.5116 18.8753C12.3299 18.6247 13.1589 16.4477 11.9762 15.0334L6.8751 8.95323L13.1699 13.7639C14.6345 14.8775 16.7456 13.931 16.9004 12.088L17.9117 0L19.52 11.8151C19.7797 13.6915 22.018 14.5045 23.3997 13.2294L36.868 0.835189L25.0521 14.6158C23.8086 16.0635 24.7261 18.3241 26.6217 18.4855L36.7907 19.4766L26.3509 21.1247C24.5326 21.3753 23.7092 23.5523 24.8919 24.9666Z"
          fill="url(#paint0_linear)"/>
    <defs>
        <linearGradient id="paint0_linear" x1="11.8347" y1="14.2185" x2="21.4291" y2="22.4997"
                        gradientUnits="userSpaceOnUse">
            <stop stop-color="#FFC10B"></stop>
            <stop offset="1" stop-color="#FB3F2E"></stop>
        </linearGradient>
    </defs>
</svg>
