<svg xmlns="http://www.w3.org/2000/svg" width="40" height="40" viewBox="0 0 40 40">
  <g fill="#00FFA3">
    <path d="M 6.707031 28.148438 C 6.949219 27.910156 7.277344 27.773438 7.617188 27.773438 L 39.046875 27.773438 C 39.621094 27.773438 39.90625 28.464844 39.503906 28.871094 L 33.292969 35.078125 C 33.050781 35.316406 32.722656 35.453125 32.382812 35.453125 L 0.953125 35.453125 C 0.378906 35.453125 0.09375 34.761719 0.496094 34.355469 Z M 6.707031 28.148438 "/>
    <path d="M 6.707031 4.980469 C 6.949219 4.738281 7.277344 4.605469 7.617188 4.605469 L 39.046875 4.605469 C 39.621094 4.605469 39.90625 5.296875 39.503906 5.699219 L 33.292969 11.90625 C 33.050781 12.148438 32.722656 12.28125 32.382812 12.28125 L 0.953125 12.28125 C 0.378906 12.28125 0.09375 11.589844 0.496094 11.1875 Z M 6.707031 4.980469 "/>
    <path d="M 33.292969 16.535156 C 33.050781 16.296875 32.722656 16.160156 32.382812 16.160156 L 0.953125 16.160156 C 0.378906 16.160156 0.09375 16.851562 0.496094 17.257812 L 6.707031 23.464844 C 6.949219 23.703125 7.277344 23.839844 7.617188 23.839844 L 39.046875 23.839844 C 39.621094 23.839844 39.90625 23.148438 39.503906 22.742188 Z M 33.292969 16.535156 "/>
  </g>
</svg>
