<!--
  - This file is part of Solana Reference Stake Pool code.
  -
  - Copyright © 2021, mFactory GmbH
  -
  - Solana Reference Stake Pool is free software: you can redistribute it
  - and/or modify it under the terms of the GNU Affero General Public License
  - as published by the Free Software Foundation, either version 3
  - of the License, or (at your option) any later version.
  -
  - Solana Reference Stake Pool is distributed in the hope that it
  - will be useful, but WITHOUT ANY WARRANTY; without even the implied
  - warranty of MERCHANTABILITY or FITNESS FOR A PARTICULAR PURPOSE.
  - See the GNU Affero General Public License for more details.
  -
  - You should have received a copy of the GNU Affero General Public License
  - along with this program.
  - If not, see <https://www.gnu.org/licenses/agpl-3.0.html>.
  -
  - You can be released from the requirements of the Affero GNU General Public License
  - by purchasing a commercial license. The purchase of such a license is
  - mandatory as soon as you develop commercial activities using the
  - Solana Reference Stake Pool code without disclosing the source code of
  - your own applications.
  -
  - The developer of this program can be contacted at <info@mfactory.ch>.
  -->

<svg width="118" height="70" viewBox="24 0 118 70" fill="none" xmlns="http://www.w3.org/2000/svg">
  <path
    d="M28.3041 62.347C28.4874 61.9583 28.7588 61.665 29.1181 61.467C29.4848 61.269 29.9358 61.17 30.4711 61.17V61.929L30.2841 61.918C29.6754 61.918 29.1988 62.105 28.8541 62.479C28.5094 62.853 28.3371 63.3773 28.3371 64.052V67H27.5561V61.214H28.3041V62.347ZM36.8695 64.349H32.0295C32.0735 64.9503 32.3045 65.438 32.7225 65.812C33.1405 66.1787 33.6685 66.362 34.3065 66.362C34.6658 66.362 34.9958 66.2997 35.2965 66.175C35.5972 66.043 35.8575 65.8523 36.0775 65.603L36.5175 66.109C36.2608 66.417 35.9382 66.6517 35.5495 66.813C35.1682 66.9743 34.7465 67.055 34.2845 67.055C33.6905 67.055 33.1625 66.9303 32.7005 66.681C32.2458 66.4243 31.8902 66.0723 31.6335 65.625C31.3768 65.1777 31.2485 64.6717 31.2485 64.107C31.2485 63.5423 31.3695 63.0363 31.6115 62.589C31.8608 62.1417 32.1982 61.7933 32.6235 61.544C33.0562 61.2947 33.5402 61.17 34.0755 61.17C34.6108 61.17 35.0912 61.2947 35.5165 61.544C35.9418 61.7933 36.2755 62.1417 36.5175 62.589C36.7595 63.029 36.8805 63.535 36.8805 64.107L36.8695 64.349ZM34.0755 61.841C33.5182 61.841 33.0488 62.0207 32.6675 62.38C32.2935 62.732 32.0808 63.194 32.0295 63.766H36.1325C36.0812 63.194 35.8648 62.732 35.4835 62.38C35.1095 62.0207 34.6402 61.841 34.0755 61.841ZM40.3842 59.443C40.0468 59.443 39.7902 59.5347 39.6142 59.718C39.4455 59.9013 39.3612 60.1727 39.3612 60.532V61.214H41.1432V61.874H39.3832V67H38.6022V61.874H37.5682V61.214H38.6022V60.499C38.6022 59.971 38.7525 59.553 39.0532 59.245C39.3612 58.937 39.7938 58.783 40.3512 58.783C40.5712 58.783 40.7838 58.816 40.9892 58.882C41.1945 58.9407 41.3668 59.0287 41.5062 59.146L41.2422 59.729C41.0148 59.5383 40.7288 59.443 40.3842 59.443ZM47.139 64.349H42.299C42.343 64.9503 42.574 65.438 42.992 65.812C43.41 66.1787 43.938 66.362 44.576 66.362C44.9354 66.362 45.2654 66.2997 45.566 66.175C45.8667 66.043 46.127 65.8523 46.347 65.603L46.787 66.109C46.5304 66.417 46.2077 66.6517 45.819 66.813C45.4377 66.9743 45.016 67.055 44.554 67.055C43.96 67.055 43.432 66.9303 42.97 66.681C42.5154 66.4243 42.1597 66.0723 41.903 65.625C41.6464 65.1777 41.518 64.6717 41.518 64.107C41.518 63.5423 41.639 63.0363 41.881 62.589C42.1304 62.1417 42.4677 61.7933 42.893 61.544C43.3257 61.2947 43.8097 61.17 44.345 61.17C44.8804 61.17 45.3607 61.2947 45.786 61.544C46.2114 61.7933 46.545 62.1417 46.787 62.589C47.029 63.029 47.15 63.535 47.15 64.107L47.139 64.349ZM44.345 61.841C43.7877 61.841 43.3184 62.0207 42.937 62.38C42.563 62.732 42.3504 63.194 42.299 63.766H46.402C46.3507 63.194 46.1344 62.732 45.753 62.38C45.379 62.0207 44.9097 61.841 44.345 61.841ZM49.4877 62.347C49.671 61.9583 49.9424 61.665 50.3017 61.467C50.6684 61.269 51.1194 61.17 51.6547 61.17V61.929L51.4677 61.918C50.859 61.918 50.3824 62.105 50.0377 62.479C49.693 62.853 49.5207 63.3773 49.5207 64.052V67H48.7397V61.214H49.4877V62.347ZM58.0531 64.349H53.2131C53.2571 64.9503 53.4881 65.438 53.9061 65.812C54.3241 66.1787 54.8521 66.362 55.4901 66.362C55.8494 66.362 56.1794 66.2997 56.4801 66.175C56.7808 66.043 57.0411 65.8523 57.2611 65.603L57.7011 66.109C57.4444 66.417 57.1218 66.6517 56.7331 66.813C56.3518 66.9743 55.9301 67.055 55.4681 67.055C54.8741 67.055 54.3461 66.9303 53.8841 66.681C53.4294 66.4243 53.0738 66.0723 52.8171 65.625C52.5604 65.1777 52.4321 64.6717 52.4321 64.107C52.4321 63.5423 52.5531 63.0363 52.7951 62.589C53.0444 62.1417 53.3818 61.7933 53.8071 61.544C54.2398 61.2947 54.7238 61.17 55.2591 61.17C55.7944 61.17 56.2748 61.2947 56.7001 61.544C57.1254 61.7933 57.4591 62.1417 57.7011 62.589C57.9431 63.029 58.0641 63.535 58.0641 64.107L58.0531 64.349ZM55.2591 61.841C54.7018 61.841 54.2324 62.0207 53.8511 62.38C53.4771 62.732 53.2644 63.194 53.2131 63.766H57.3161C57.2648 63.194 57.0484 62.732 56.6671 62.38C56.2931 62.0207 55.8238 61.841 55.2591 61.841ZM62.6018 61.17C63.3278 61.17 63.9034 61.3827 64.3288 61.808C64.7614 62.226 64.9778 62.8383 64.9778 63.645V67H64.1968V63.722C64.1968 63.1207 64.0464 62.6623 63.7458 62.347C63.4451 62.0317 63.0161 61.874 62.4588 61.874C61.8354 61.874 61.3404 62.061 60.9738 62.435C60.6144 62.8017 60.4348 63.3113 60.4348 63.964V67H59.6538V61.214H60.4018V62.281C60.6144 61.929 60.9078 61.6577 61.2818 61.467C61.6631 61.269 62.1031 61.17 62.6018 61.17ZM69.5176 67.055C68.9456 67.055 68.4323 66.9303 67.9776 66.681C67.5303 66.4317 67.1783 66.0833 66.9216 65.636C66.6649 65.1813 66.5366 64.6717 66.5366 64.107C66.5366 63.5423 66.6649 63.0363 66.9216 62.589C67.1783 62.1417 67.5303 61.7933 67.9776 61.544C68.4323 61.2947 68.9456 61.17 69.5176 61.17C70.0163 61.17 70.4599 61.269 70.8486 61.467C71.2446 61.6577 71.5563 61.94 71.7836 62.314L71.2006 62.71C71.0099 62.424 70.7679 62.2113 70.4746 62.072C70.1813 61.9253 69.8623 61.852 69.5176 61.852C69.0996 61.852 68.7219 61.9473 68.3846 62.138C68.0546 62.3213 67.7943 62.5853 67.6036 62.93C67.4203 63.2747 67.3286 63.667 67.3286 64.107C67.3286 64.5543 67.4203 64.9503 67.6036 65.295C67.7943 65.6323 68.0546 65.8963 68.3846 66.087C68.7219 66.2703 69.0996 66.362 69.5176 66.362C69.8623 66.362 70.1813 66.2923 70.4746 66.153C70.7679 66.0137 71.0099 65.801 71.2006 65.515L71.7836 65.911C71.5563 66.285 71.2446 66.571 70.8486 66.769C70.4526 66.9597 70.0089 67.055 69.5176 67.055ZM78.2591 64.349H73.4191C73.4631 64.9503 73.6941 65.438 74.1121 65.812C74.5301 66.1787 75.0581 66.362 75.6961 66.362C76.0555 66.362 76.3855 66.2997 76.6861 66.175C76.9868 66.043 77.2471 65.8523 77.4671 65.603L77.9071 66.109C77.6505 66.417 77.3278 66.6517 76.9391 66.813C76.5578 66.9743 76.1361 67.055 75.6741 67.055C75.0801 67.055 74.5521 66.9303 74.0901 66.681C73.6355 66.4243 73.2798 66.0723 73.0231 65.625C72.7665 65.1777 72.6381 64.6717 72.6381 64.107C72.6381 63.5423 72.7591 63.0363 73.0011 62.589C73.2505 62.1417 73.5878 61.7933 74.0131 61.544C74.4458 61.2947 74.9298 61.17 75.4651 61.17C76.0005 61.17 76.4808 61.2947 76.9061 61.544C77.3315 61.7933 77.6651 62.1417 77.9071 62.589C78.1491 63.029 78.2701 63.535 78.2701 64.107L78.2591 64.349ZM75.4651 61.841C74.9078 61.841 74.4385 62.0207 74.0571 62.38C73.6831 62.732 73.4705 63.194 73.4191 63.766H77.5221C77.4708 63.194 77.2545 62.732 76.8731 62.38C76.4991 62.0207 76.0298 61.841 75.4651 61.841ZM84.2897 67.055C83.8204 67.055 83.3694 66.989 82.9367 66.857C82.5114 66.7177 82.1777 66.5453 81.9357 66.34L82.2877 65.724C82.5297 65.9147 82.8341 66.0723 83.2007 66.197C83.5674 66.3143 83.9487 66.373 84.3447 66.373C84.8727 66.373 85.2614 66.2923 85.5107 66.131C85.7674 65.9623 85.8957 65.7277 85.8957 65.427C85.8957 65.2143 85.8261 65.0493 85.6867 64.932C85.5474 64.8073 85.3714 64.7157 85.1587 64.657C84.9461 64.591 84.6637 64.5287 84.3117 64.47C83.8424 64.382 83.4647 64.294 83.1787 64.206C82.8927 64.1107 82.6471 63.953 82.4417 63.733C82.2437 63.513 82.1447 63.2087 82.1447 62.82C82.1447 62.336 82.3464 61.94 82.7497 61.632C83.1531 61.324 83.7141 61.17 84.4327 61.17C84.8067 61.17 85.1807 61.2213 85.5547 61.324C85.9287 61.4193 86.2367 61.5477 86.4787 61.709L86.1377 62.336C85.6611 62.006 85.0927 61.841 84.4327 61.841C83.9341 61.841 83.5564 61.929 83.2997 62.105C83.0504 62.281 82.9257 62.512 82.9257 62.798C82.9257 63.018 82.9954 63.194 83.1347 63.326C83.2814 63.458 83.4611 63.557 83.6737 63.623C83.8864 63.6817 84.1797 63.744 84.5537 63.81C85.0157 63.898 85.3861 63.986 85.6647 64.074C85.9434 64.162 86.1817 64.3123 86.3797 64.525C86.5777 64.7377 86.6767 65.031 86.6767 65.405C86.6767 65.911 86.4641 66.3143 86.0387 66.615C85.6207 66.9083 85.0377 67.055 84.2897 67.055ZM91.1676 66.648C91.0209 66.78 90.8376 66.8827 90.6176 66.956C90.4049 67.022 90.1812 67.055 89.9466 67.055C89.4039 67.055 88.9859 66.9083 88.6926 66.615C88.3992 66.3217 88.2526 65.9073 88.2526 65.372V61.874H87.2186V61.214H88.2526V59.949H89.0336V61.214H90.7936V61.874H89.0336V65.328C89.0336 65.6727 89.1179 65.9367 89.2866 66.12C89.4626 66.296 89.7119 66.384 90.0346 66.384C90.1959 66.384 90.3499 66.3583 90.4966 66.307C90.6506 66.2557 90.7826 66.1823 90.8926 66.087L91.1676 66.648ZM94.6133 61.17C95.3686 61.17 95.948 61.3607 96.3513 61.742C96.7546 62.116 96.9563 62.6733 96.9563 63.414V67H96.2083V66.098C96.0323 66.3987 95.772 66.6333 95.4273 66.802C95.09 66.9707 94.6866 67.055 94.2173 67.055C93.572 67.055 93.0586 66.901 92.6773 66.593C92.296 66.285 92.1053 65.878 92.1053 65.372C92.1053 64.8807 92.2813 64.4847 92.6333 64.184C92.9926 63.8833 93.561 63.733 94.3383 63.733H96.1753V63.381C96.1753 62.8823 96.036 62.5047 95.7573 62.248C95.4786 61.984 95.0716 61.852 94.5363 61.852C94.1696 61.852 93.8176 61.9143 93.4803 62.039C93.143 62.1563 92.8533 62.3213 92.6113 62.534L92.2593 61.951C92.5526 61.7017 92.9046 61.511 93.3153 61.379C93.726 61.2397 94.1586 61.17 94.6133 61.17ZM94.3383 66.439C94.7783 66.439 95.156 66.34 95.4713 66.142C95.7866 65.9367 96.0213 65.6433 96.1753 65.262V64.316H94.3603C93.3703 64.316 92.8753 64.6607 92.8753 65.35C92.8753 65.6873 93.0036 65.955 93.2603 66.153C93.517 66.3437 93.8763 66.439 94.3383 66.439ZM101.223 64.096L99.8586 65.35V67H99.0776V58.838H99.8586V64.371L103.313 61.214H104.281L101.806 63.579L104.512 67H103.555L101.223 64.096ZM110.486 64.349H105.646C105.69 64.9503 105.921 65.438 106.339 65.812C106.757 66.1787 107.285 66.362 107.923 66.362C108.282 66.362 108.612 66.2997 108.913 66.175C109.213 66.043 109.474 65.8523 109.694 65.603L110.134 66.109C109.877 66.417 109.554 66.6517 109.166 66.813C108.784 66.9743 108.363 67.055 107.901 67.055C107.307 67.055 106.779 66.9303 106.317 66.681C105.862 66.4243 105.506 66.0723 105.25 65.625C104.993 65.1777 104.865 64.6717 104.865 64.107C104.865 63.5423 104.986 63.0363 105.228 62.589C105.477 62.1417 105.814 61.7933 106.24 61.544C106.672 61.2947 107.156 61.17 107.692 61.17C108.227 61.17 108.707 61.2947 109.133 61.544C109.558 61.7933 109.892 62.1417 110.134 62.589C110.376 63.029 110.497 63.535 110.497 64.107L110.486 64.349ZM107.692 61.841C107.134 61.841 106.665 62.0207 106.284 62.38C105.91 62.732 105.697 63.194 105.646 63.766H109.749C109.697 63.194 109.481 62.732 109.1 62.38C108.726 62.0207 108.256 61.841 107.692 61.841ZM117.946 61.17C118.489 61.17 118.98 61.2947 119.42 61.544C119.86 61.786 120.205 62.1307 120.454 62.578C120.704 63.0253 120.828 63.535 120.828 64.107C120.828 64.6863 120.704 65.1997 120.454 65.647C120.205 66.0943 119.86 66.4427 119.42 66.692C118.988 66.934 118.496 67.055 117.946 67.055C117.477 67.055 117.052 66.9597 116.67 66.769C116.296 66.571 115.988 66.285 115.746 65.911V69.134H114.965V61.214H115.713V62.358C115.948 61.9767 116.256 61.6833 116.637 61.478C117.026 61.2727 117.462 61.17 117.946 61.17ZM117.891 66.362C118.295 66.362 118.661 66.2703 118.991 66.087C119.321 65.8963 119.578 65.6287 119.761 65.284C119.952 64.9393 120.047 64.547 120.047 64.107C120.047 63.667 119.952 63.2783 119.761 62.941C119.578 62.5963 119.321 62.3287 118.991 62.138C118.661 61.9473 118.295 61.852 117.891 61.852C117.481 61.852 117.11 61.9473 116.78 62.138C116.458 62.3287 116.201 62.5963 116.01 62.941C115.827 63.2783 115.735 63.667 115.735 64.107C115.735 64.547 115.827 64.9393 116.01 65.284C116.201 65.6287 116.458 65.8963 116.78 66.087C117.11 66.2703 117.481 66.362 117.891 66.362ZM124.785 67.055C124.228 67.055 123.726 66.9303 123.278 66.681C122.831 66.4243 122.479 66.0723 122.222 65.625C121.966 65.1777 121.837 64.6717 121.837 64.107C121.837 63.5423 121.966 63.0363 122.222 62.589C122.479 62.1417 122.831 61.7933 123.278 61.544C123.726 61.2947 124.228 61.17 124.785 61.17C125.343 61.17 125.845 61.2947 126.292 61.544C126.74 61.7933 127.088 62.1417 127.337 62.589C127.594 63.0363 127.722 63.5423 127.722 64.107C127.722 64.6717 127.594 65.1777 127.337 65.625C127.088 66.0723 126.74 66.4243 126.292 66.681C125.845 66.9303 125.343 67.055 124.785 67.055ZM124.785 66.362C125.196 66.362 125.563 66.2703 125.885 66.087C126.215 65.8963 126.472 65.6287 126.655 65.284C126.839 64.9393 126.93 64.547 126.93 64.107C126.93 63.667 126.839 63.2747 126.655 62.93C126.472 62.5853 126.215 62.3213 125.885 62.138C125.563 61.9473 125.196 61.852 124.785 61.852C124.375 61.852 124.004 61.9473 123.674 62.138C123.352 62.3213 123.095 62.5853 122.904 62.93C122.721 63.2747 122.629 63.667 122.629 64.107C122.629 64.547 122.721 64.9393 122.904 65.284C123.095 65.6287 123.352 65.8963 123.674 66.087C124.004 66.2703 124.375 66.362 124.785 66.362ZM131.682 67.055C131.125 67.055 130.622 66.9303 130.175 66.681C129.728 66.4243 129.376 66.0723 129.119 65.625C128.862 65.1777 128.734 64.6717 128.734 64.107C128.734 63.5423 128.862 63.0363 129.119 62.589C129.376 62.1417 129.728 61.7933 130.175 61.544C130.622 61.2947 131.125 61.17 131.682 61.17C132.239 61.17 132.742 61.2947 133.189 61.544C133.636 61.7933 133.985 62.1417 134.234 62.589C134.491 63.0363 134.619 63.5423 134.619 64.107C134.619 64.6717 134.491 65.1777 134.234 65.625C133.985 66.0723 133.636 66.4243 133.189 66.681C132.742 66.9303 132.239 67.055 131.682 67.055ZM131.682 66.362C132.093 66.362 132.459 66.2703 132.782 66.087C133.112 65.8963 133.369 65.6287 133.552 65.284C133.735 64.9393 133.827 64.547 133.827 64.107C133.827 63.667 133.735 63.2747 133.552 62.93C133.369 62.5853 133.112 62.3213 132.782 62.138C132.459 61.9473 132.093 61.852 131.682 61.852C131.271 61.852 130.901 61.9473 130.571 62.138C130.248 62.3213 129.992 62.5853 129.801 62.93C129.618 63.2747 129.526 63.667 129.526 64.107C129.526 64.547 129.618 64.9393 129.801 65.284C129.992 65.6287 130.248 65.8963 130.571 66.087C130.901 66.2703 131.271 66.362 131.682 66.362ZM136.213 58.838H136.994V67H136.213V58.838Z"
    fill="white"
  />
  <path
    d="M56.2638 52L48.9738 41.47H48.5418H40.9278V52H32.1798V14.2H48.5418C51.8898 14.2 54.7878 14.758 57.2358 15.874C59.7198 16.99 61.6278 18.574 62.9598 20.626C64.2918 22.678 64.9578 25.108 64.9578 27.916C64.9578 30.724 64.2738 33.154 62.9058 35.206C61.5738 37.222 59.6658 38.77 57.1818 39.85L65.6598 52H56.2638ZM56.1018 27.916C56.1018 25.792 55.4178 24.172 54.0498 23.056C52.6818 21.904 50.6838 21.328 48.0558 21.328H40.9278V34.504H48.0558C50.6838 34.504 52.6818 33.928 54.0498 32.776C55.4178 31.624 56.1018 30.004 56.1018 27.916ZM84.3088 52.648C81.3208 52.648 78.4228 52.252 75.6148 51.46C72.8428 50.632 70.6108 49.57 68.9188 48.274L71.8888 41.686C73.5088 42.874 75.4348 43.828 77.6668 44.548C79.8988 45.268 82.1308 45.628 84.3628 45.628C86.8468 45.628 88.6828 45.268 89.8708 44.548C91.0588 43.792 91.6528 42.802 91.6528 41.578C91.6528 40.678 91.2928 39.94 90.5728 39.364C89.8888 38.752 88.9888 38.266 87.8728 37.906C86.7928 37.546 85.3168 37.15 83.4448 36.718C80.5648 36.034 78.2068 35.35 76.3708 34.666C74.5348 33.982 72.9508 32.884 71.6188 31.372C70.3228 29.86 69.6748 27.844 69.6748 25.324C69.6748 23.128 70.2688 21.148 71.4568 19.384C72.6448 17.584 74.4268 16.162 76.8028 15.118C79.2148 14.074 82.1488 13.552 85.6048 13.552C88.0168 13.552 90.3748 13.84 92.6788 14.416C94.9828 14.992 96.9988 15.82 98.7268 16.9L96.0268 23.542C92.5348 21.562 89.0428 20.572 85.5508 20.572C83.1028 20.572 81.2848 20.968 80.0968 21.76C78.9448 22.552 78.3688 23.596 78.3688 24.892C78.3688 26.188 79.0348 27.16 80.3668 27.808C81.7348 28.42 83.8048 29.032 86.5768 29.644C89.4568 30.328 91.8148 31.012 93.6508 31.696C95.4868 32.38 97.0528 33.46 98.3488 34.936C99.6808 36.412 100.347 38.41 100.347 40.93C100.347 43.09 99.7348 45.07 98.5108 46.87C97.3228 48.634 95.5228 50.038 93.1108 51.082C90.6988 52.126 87.7648 52.648 84.3088 52.648ZM122.686 14.2C126.034 14.2 128.932 14.758 131.38 15.874C133.864 16.99 135.772 18.574 137.104 20.626C138.436 22.678 139.102 25.108 139.102 27.916C139.102 30.688 138.436 33.118 137.104 35.206C135.772 37.258 133.864 38.842 131.38 39.958C128.932 41.038 126.034 41.578 122.686 41.578H115.072V52H106.324V14.2H122.686ZM122.2 34.45C124.828 34.45 126.826 33.892 128.194 32.776C129.562 31.624 130.246 30.004 130.246 27.916C130.246 25.792 129.562 24.172 128.194 23.056C126.826 21.904 124.828 21.328 122.2 21.328H115.072V34.45H122.2Z"
    fill="white"
  />
</svg>
